<svg width="181" height="59" viewBox="0 0 181 59" fill="none" xmlns="http://www.w3.org/2000/svg">
<path d="M85.3994 0.742188V4.85202H77.8471V25.1845H74.541C73.6571 25.1845 72.9403 24.4323 72.9403 23.5048V4.85202H65.3516V0.742188H85.3978H85.3994Z" fill="white"/>
<path d="M94.2193 0.742188V25.1845H90.9132C90.0293 25.1845 89.3125 24.4323 89.3125 23.5048V0.742188H94.2178H94.2193Z" fill="white"/>
<path d="M119.701 18.0743C119.017 20.4695 117.813 22.2527 116.083 23.4256C114.354 24.5984 112.325 25.1849 109.995 25.1849C107.665 25.1849 105.825 24.6797 104.189 23.6662C102.554 22.6543 101.289 21.2105 100.396 19.3333C99.5012 17.4576 99.0547 15.2107 99.0547 12.5924C99.0547 9.97419 99.5012 7.72884 100.396 5.85161C101.29 3.97597 102.554 2.5306 104.189 1.51868C105.825 0.506757 107.747 0 109.96 0C111.514 0 112.925 0.234256 114.196 0.704361C115.467 1.17447 116.548 1.87723 117.443 2.81585C118.337 3.75447 118.984 4.96399 119.383 6.44602L114.972 8.37106C114.619 6.84122 114.036 5.76078 113.225 5.13131C112.414 4.50185 111.395 4.18632 110.173 4.18632C108.95 4.18632 107.849 4.50663 106.944 5.14884C106.037 5.79106 105.339 6.73605 104.844 7.98222C104.35 9.22999 104.103 10.7662 104.103 12.5924C104.103 14.4187 104.338 15.9198 104.809 17.166C105.28 18.4138 105.968 19.3635 106.874 20.0169C107.779 20.6719 108.868 20.9986 110.139 20.9986C111.41 20.9986 112.451 20.6416 113.333 19.9245C113.877 19.4847 114.314 18.8982 114.648 18.1684C115.036 17.319 115.942 16.8792 116.8 17.1517L119.704 18.0727L119.701 18.0743Z" fill="white"/>
<path d="M140.395 25.1865C138.584 25.1865 137.001 24.8104 135.648 24.0566C134.295 23.3044 133.243 22.2049 132.489 20.7611C131.736 19.3173 131.359 17.5819 131.359 15.5581C131.359 13.5342 131.736 11.7988 132.489 10.355C133.243 8.91127 134.277 7.8117 135.595 7.05953C136.912 6.30737 138.43 5.92969 140.148 5.92969C141.865 5.92969 143.377 6.30577 144.613 7.05953C145.847 7.81329 146.795 8.84434 147.454 10.1527C148.113 11.461 148.443 12.9558 148.443 14.6338C148.443 15.0784 148.431 15.4927 148.408 15.8752C148.384 16.2577 148.349 16.5859 148.302 16.8568H134.538V13.8195H146.15L143.785 14.672C143.785 13.6107 143.644 12.7088 143.361 11.9693C143.079 11.2283 142.667 10.661 142.127 10.2658C141.585 9.8706 140.927 9.673 140.151 9.673C139.281 9.673 138.534 9.89451 137.909 10.3391C137.285 10.7837 136.816 11.4451 136.497 12.3199C136.18 13.1964 136.02 14.3007 136.02 15.6346C136.02 16.9684 136.196 18.0297 136.55 18.8934C136.902 19.7587 137.408 20.3994 138.067 20.8185C138.726 21.2392 139.502 21.4479 140.397 21.4479C141.361 21.4479 142.156 21.2328 142.78 20.7993C143.077 20.5922 143.342 20.3484 143.572 20.0647C144.061 19.4655 144.862 19.2647 145.563 19.5452L148.09 20.5571C147.738 21.5451 147.178 22.385 146.414 23.075C145.648 23.7666 144.749 24.2909 143.714 24.6494C142.678 25.0064 141.572 25.1865 140.395 25.1865V25.1865Z" fill="white"/>
<path d="M152.398 23.5059V6.70164C152.398 6.68252 152.412 6.66818 152.43 6.66818H156.708C156.725 6.66818 156.739 6.68252 156.74 6.70005L156.909 9.98282C156.91 10.0179 156.954 10.0258 156.97 9.99557C157.531 8.79401 158.312 7.88248 159.316 7.26099C160.352 6.61878 161.492 6.29847 162.739 6.29847C163.986 6.29847 165.157 6.60762 166.18 7.22434C167.184 7.8299 167.922 8.74302 168.394 9.96688C168.405 9.99397 168.44 9.99557 168.452 9.96688C168.803 9.15894 169.28 8.48486 169.886 7.94623C170.508 7.39007 171.215 6.97733 172.003 6.70483C172.791 6.43392 173.585 6.29688 174.386 6.29688C175.538 6.29688 176.574 6.54388 177.491 7.03789C178.408 7.5319 179.15 8.27291 179.715 9.25933C180.279 10.2474 180.562 11.4935 180.562 12.9995V25.1505C180.562 25.1696 180.548 25.1839 180.53 25.1839H177.292C176.408 25.1839 175.692 24.4318 175.692 23.5043V14.0369C175.692 12.7031 175.409 11.7469 174.844 11.1668C174.279 10.5868 173.561 10.2968 172.691 10.2968C171.985 10.2968 171.35 10.4816 170.785 10.8529C170.22 11.2226 169.767 11.7724 169.426 12.5007C169.084 13.2289 168.914 14.1118 168.914 15.1492V25.1521C168.914 25.1712 168.9 25.1855 168.882 25.1855H165.644C164.76 25.1855 164.044 24.4334 164.044 23.5059V14.0385C164.044 12.7046 163.761 11.7485 163.196 11.1684C162.631 10.5884 161.925 10.2983 161.079 10.2983C160.444 10.2983 159.832 10.472 159.245 10.8163C158.657 11.1621 158.18 11.7055 157.815 12.4465C157.451 13.1875 157.269 14.15 157.269 15.3356V25.1537C157.269 25.1728 157.255 25.1871 157.237 25.1871H153.999C153.115 25.1871 152.398 24.435 152.398 23.5075V23.5059Z" fill="white"/>
<path d="M83.2706 40.0418V43.8185H69.8594V40.0418H83.2706V40.0418ZM77.8004 34.375V52.4477C77.8004 53.3864 78.0115 54.0652 78.4352 54.4843C78.8589 54.905 79.4467 55.1138 80.1999 55.1138C80.7649 55.1138 81.2584 55.0214 81.6821 54.8365C82.1058 54.6517 82.4946 54.411 82.8469 54.1146L83.3435 56.4636C83.4772 57.093 83.1917 57.7448 82.6419 58.0316C82.285 58.2181 81.8947 58.3806 81.4695 58.5209C80.6449 58.7918 79.7868 58.9288 78.8939 58.9288C77.1049 58.9288 75.6698 58.5033 74.5885 57.6508C73.5057 56.7982 72.965 55.3481 72.965 53.2987V35.7821L77.8004 34.375V34.375Z" fill="white"/>
<path d="M86.4453 57.2481V40.4104H90.7158L90.9633 44.1505C91.387 42.8422 92.0401 41.8302 92.9224 41.1131C93.8047 40.3976 94.8921 40.0391 96.1875 40.0391C96.5869 40.0391 96.9468 40.0757 97.2642 40.1506C97.5816 40.2255 97.8459 40.3243 98.0585 40.447L97.4936 44.7433C97.3052 44.6445 97.041 44.5648 96.6993 44.5027C96.3576 44.4421 95.9278 44.4102 95.4115 44.4102C94.7053 44.4102 94.0401 44.5951 93.4175 44.9664C92.7933 45.3361 92.2876 45.8859 91.9003 46.6142C91.5116 47.3424 91.3187 48.2508 91.3187 49.336V58.9277H88.049C87.1652 58.9277 86.4484 58.1756 86.4484 57.2481H86.4453Z" fill="white"/>
<path d="M103.388 37.8743C104.897 37.8743 106.12 36.5908 106.12 35.0075C106.12 33.4242 104.897 32.1406 103.388 32.1406C101.879 32.1406 100.656 33.4242 100.656 35.0075C100.656 36.5908 101.879 37.8743 103.388 37.8743Z" fill="white"/>
<path d="M105.823 40.4141V58.9314H102.554C101.67 58.9314 100.953 58.1793 100.953 57.2518V40.4141H105.823V40.4141Z" fill="white"/>
<path d="M115.597 31.9688V52.8191C115.597 53.6095 115.714 54.2023 115.949 54.5975C116.185 54.9927 116.631 55.1903 117.29 55.1903C117.643 55.1903 117.943 55.1664 118.191 55.117C118.438 55.0676 118.725 54.9688 119.055 54.8206L118.789 57.3337C118.73 57.8867 118.37 58.3552 117.864 58.5257C117.667 58.5926 117.451 58.6532 117.22 58.7106C116.608 58.8588 116.031 58.9321 115.491 58.9321C113.679 58.9321 112.432 58.4381 111.75 57.45C111.067 56.4636 110.727 55.1043 110.727 53.3769V31.9688H115.597V31.9688Z" fill="white"/>
<path d="M121.703 57.2545V32.3438H126.573V43.6757C127.114 42.4662 127.867 41.5594 128.832 40.9538C129.796 40.3499 130.902 40.0471 132.15 40.0471C133.398 40.0471 134.408 40.2941 135.327 40.7881C136.244 41.2821 136.969 42.0295 137.497 43.0287C138.027 44.0279 138.291 45.2692 138.291 46.7513V58.9358H135.022C134.138 58.9358 133.421 58.1836 133.421 57.2561V48.1951C133.421 46.6652 133.139 45.5848 132.574 44.9553C132.009 44.3259 131.28 44.0103 130.385 44.0103C129.75 44.0103 129.138 44.184 128.551 44.5282C127.963 44.874 127.486 45.4238 127.122 46.176C126.757 46.9298 126.575 47.9114 126.575 49.1209V58.9358H123.305C122.421 58.9358 121.705 58.1836 121.705 57.2561L121.703 57.2545Z" fill="white"/>
<path d="M152.937 46.7075C152.937 45.6701 152.673 44.8494 152.143 44.2454C151.613 43.6415 150.89 43.3387 149.973 43.3387C149.055 43.3387 148.314 43.573 147.678 44.0431C147.043 44.5132 146.585 45.302 146.302 46.4127L142.208 45.1171C142.584 43.463 143.443 42.1419 144.784 41.1539C146.124 40.1675 147.936 39.6719 150.219 39.6719C151.772 39.6719 153.113 39.9253 154.242 40.4304C155.372 40.9372 156.248 41.6957 156.871 42.7076C157.493 43.7196 157.806 44.9801 157.806 46.4844V54.0029C157.806 54.9654 158.218 55.4467 159.041 55.4467C159.229 55.4467 159.423 55.4339 159.622 55.41C159.821 55.3861 159.993 55.3479 160.134 55.2985L159.934 57.4992C159.877 58.1127 159.451 58.6259 158.874 58.7406C158.871 58.7406 158.866 58.7406 158.863 58.7422C158.486 58.8155 158.051 58.8538 157.557 58.8538C156.757 58.8538 156.034 58.7119 155.387 58.4283C154.74 58.1446 154.234 57.7 153.87 57.0944C153.505 56.4905 153.323 55.7176 153.323 54.7806V54.4842L153.994 54.336C153.9 55.3479 153.548 56.2005 152.936 56.8921C152.324 57.5837 151.57 58.0952 150.677 58.4283C149.783 58.7613 148.843 58.9287 147.854 58.9287C146.159 58.9287 144.777 58.4968 143.707 57.6331C142.636 56.7694 142.102 55.5104 142.102 53.8563C142.102 52.548 142.49 51.4484 143.266 50.5608C144.042 49.6716 145.23 49.0549 146.831 48.709L153.466 47.227V50.2261L149.406 51.1154C148.606 51.2891 147.994 51.5472 147.572 51.893C147.148 52.2388 146.937 52.744 146.937 53.4117C146.937 54.0794 147.154 54.5479 147.59 54.8937C148.026 55.2395 148.583 55.4116 149.267 55.4116C149.737 55.4116 150.196 55.3447 150.642 55.2077C151.089 55.0722 151.484 54.8507 151.826 54.5415C152.166 54.2324 152.438 53.8499 152.638 53.3942C152.837 52.9384 152.939 52.3886 152.939 51.7464V46.7091L152.937 46.7075Z" fill="white"/>
<path d="M169.703 58.9318C167.985 58.9318 166.409 58.6036 164.973 57.9502C164.067 57.5375 163.265 57.0084 162.565 56.3646C161.865 55.7208 161.856 54.6547 162.468 53.9694L164.02 52.2293C164.56 53.1679 165.32 53.92 166.296 54.4889C167.273 55.0579 168.372 55.3399 169.596 55.3399C170.444 55.3399 171.144 55.1726 171.697 54.8395C172.249 54.5065 172.526 54.0427 172.526 53.4499C172.526 53.0308 172.397 52.6723 172.137 52.3759C171.877 52.0795 171.361 51.8452 170.583 51.6715L167.689 51.042C165.664 50.5735 164.229 49.8947 163.383 49.0055C162.536 48.1162 162.112 46.9561 162.112 45.5235C162.112 44.5116 162.401 43.5666 162.976 42.6901C163.552 41.8136 164.412 41.0918 165.552 40.5244C166.693 39.9571 168.099 39.6719 169.769 39.6719C171.44 39.6719 173.022 39.981 174.304 40.5977C175.586 41.2145 176.581 42.0798 177.287 43.1905L174.711 45.9681C174.218 45.0789 173.528 44.4064 172.646 43.949C171.763 43.4917 170.875 43.2638 169.98 43.2638C169.321 43.2638 168.769 43.3435 168.322 43.5044C167.876 43.6654 167.534 43.8869 167.299 44.1705C167.063 44.4542 166.946 44.7936 166.946 45.1888C166.946 45.6095 167.11 45.9792 167.44 46.2996C167.769 46.6215 168.334 46.8685 169.133 47.0406L172.628 47.7816C174.345 48.1513 175.575 48.7696 176.316 49.6333C177.057 50.4986 177.428 51.5472 177.428 52.7806C177.428 54.5575 176.769 56.0267 175.452 57.1885C174.134 58.3486 172.217 58.9286 169.7 58.9286L169.703 58.9318Z" fill="white"/>
<path d="M6.22428 21.7574C7.10966 21.9406 7.92062 21.5725 8.41266 20.9239C8.72551 20.5112 9.20085 20.2753 9.70352 20.2753H15.6703C16.173 20.2753 16.6483 20.5128 16.9612 20.9255C17.4532 21.5741 18.2627 21.9422 19.1481 21.759C20.0182 21.5789 20.7229 20.8251 20.8824 19.9104C21.1405 18.4268 20.0608 17.1328 18.694 17.1328C17.9969 17.1328 17.3803 17.4707 16.9749 17.9981C16.6423 18.4284 16.1654 18.7073 15.6369 18.7073H9.73693C9.20844 18.7073 8.73158 18.43 8.399 17.9981C7.99351 17.4707 7.37542 17.1328 6.67988 17.1328C5.31308 17.1328 4.23332 18.4268 4.49149 19.9104C4.65095 20.8251 5.35712 21.5789 6.2258 21.759L6.22428 21.7574Z" fill="white"/>
<path d="M41.2498 16.4224C42.4799 16.4224 43.4761 15.377 43.4761 14.0862C43.4761 12.7954 42.4784 11.75 41.2498 11.75C40.0212 11.75 39.0234 12.797 39.0234 14.0862C39.0234 15.3754 40.0212 16.4224 41.2498 16.4224Z" fill="white"/>
<path d="M46.5128 31.4535C45.6335 31.2814 44.8331 31.6543 44.3472 32.3029C44.0191 32.7411 43.5468 33.0328 43.0168 33.0328H29.1135C28.4696 33.0328 27.9092 32.6296 27.6085 32.032C27.0208 30.8655 25.8544 30.0703 24.5104 30.0703C23.1664 30.0703 22.0001 30.8655 21.4124 32.032C21.1117 32.6296 20.5513 33.0328 19.9074 33.0328H16.7364C16.1988 33.0328 15.7144 32.7443 15.3833 32.3013C14.9778 31.7611 14.3537 31.4121 13.646 31.4121C12.9383 31.4121 12.3141 31.7611 11.9086 32.3013C11.576 32.7443 11.0931 33.0328 10.5555 33.0328H6.42018C5.88865 33.0328 5.41787 32.7411 5.08984 32.3029C4.60538 31.6543 3.80353 31.283 2.92423 31.4535C2.04189 31.6256 1.32053 32.3858 1.16259 33.3132C0.907451 34.7953 1.9857 36.0845 3.35097 36.0845C4.02678 36.0845 4.6312 35.7673 5.0382 35.267C5.36927 34.8606 5.83398 34.6008 6.34425 34.6008H10.6527C11.1629 34.6008 11.6277 34.859 11.9587 35.2654C12.3657 35.7658 12.9702 36.0829 13.646 36.0829C14.3218 36.0829 14.9262 35.7658 15.3332 35.2654C15.6643 34.859 16.129 34.6008 16.6392 34.6008H19.9879C20.5908 34.6008 21.1512 34.9387 21.4367 35.4948C22.0274 36.6422 23.1801 37.4247 24.5104 37.4247C25.8408 37.4247 26.9934 36.6438 27.5842 35.4948C27.8712 34.9387 28.4316 34.6008 29.033 34.6008H43.0927C43.603 34.6008 44.0677 34.859 44.3988 35.2654C44.8058 35.7658 45.4102 36.0829 46.086 36.0829C47.4513 36.0829 48.5295 34.7937 48.2759 33.3116C48.1165 32.3842 47.3951 31.624 46.5128 31.4519V31.4535Z" fill="white"/>
<path d="M52.0559 24.4381C51.1736 24.2501 50.3641 24.6086 49.8675 25.2493C49.5562 25.6508 49.0869 25.8755 48.5949 25.8755H47.3845C46.8742 25.8755 46.408 25.6158 46.0769 25.2078C45.6699 24.7059 45.0655 24.3871 44.3882 24.3871C43.7109 24.3871 43.1065 24.7059 42.6995 25.2078C42.3684 25.6158 41.9022 25.8755 41.3919 25.8755H40.6326C39.9856 25.8755 39.3949 25.4835 39.1276 24.8668C38.4548 23.3194 36.968 22.2422 35.2413 22.2422C33.5146 22.2422 32.0278 23.3179 31.3551 24.8668C31.0863 25.4835 30.497 25.8755 29.8501 25.8755H28.6579C28.1659 25.8755 27.6951 25.6493 27.3853 25.2493C26.8887 24.6086 26.0777 24.2501 25.1954 24.4381C24.3328 24.623 23.6342 25.372 23.4763 26.2819C23.2166 27.7671 24.2964 29.0611 25.6647 29.0611C26.3708 29.0611 26.995 28.7137 27.4005 28.1735C27.7331 27.7305 28.216 27.4436 28.7521 27.4436H29.7954C30.4758 27.4436 31.065 27.8866 31.3399 28.5384C32.0035 30.1081 33.4979 31.2045 35.2413 31.2045C36.9847 31.2045 38.4791 30.1081 39.1428 28.5384C39.4176 27.8866 40.0069 27.4436 40.6872 27.4436H41.3008C41.8369 27.4436 42.3213 27.7305 42.6524 28.1735C43.0579 28.7137 43.682 29.0611 44.3882 29.0611C45.0944 29.0611 45.7185 28.7137 46.124 28.1735C46.4566 27.7305 46.9395 27.4436 47.4756 27.4436H48.5007C49.0368 27.4436 49.5213 27.7305 49.8523 28.1735C50.2578 28.7137 50.882 29.0611 51.5882 29.0611C52.9565 29.0611 54.0362 27.7655 53.775 26.2803C53.6156 25.372 52.9185 24.6214 52.0544 24.4381H52.0559Z" fill="white"/>
<path d="M5.33015 27.4273H13.5127C14.1581 27.4273 14.72 27.8305 15.0192 28.4297C15.6646 29.7284 17.0269 30.5714 18.5561 30.3786C19.9078 30.2081 21.0619 29.1691 21.4674 27.805C21.6648 27.1405 21.6679 26.5094 21.5388 25.9325C21.3976 25.3015 21.5555 24.6402 22.0065 24.1987L24.0294 22.2115C24.3984 21.8482 24.9057 21.7223 25.4083 21.7892C25.4934 21.8004 25.5799 21.8068 25.668 21.8068C26.3545 21.8068 26.965 21.4785 27.372 20.9654C27.703 20.5463 28.1753 20.2769 28.6947 20.2769H42.0802C42.5828 20.2769 43.0582 20.5144 43.371 20.9255C43.8631 21.5741 44.6725 21.9438 45.5594 21.759C46.4296 21.5789 47.1343 20.8251 47.2937 19.9104C47.5519 18.4268 46.4721 17.1328 45.1053 17.1328C44.4083 17.1328 43.7917 17.4707 43.3862 17.9981C43.0536 18.4284 42.5768 18.7073 42.0483 18.7073H28.7251C28.2103 18.7073 27.7288 18.4523 27.4114 18.0268C26.9361 17.3878 26.154 17.0165 25.2914 17.1663C24.4531 17.3113 23.7515 17.9886 23.5252 18.8475C23.4477 19.1423 23.428 19.426 23.4538 19.6969C23.5039 20.2084 23.3642 20.72 23.0058 21.0721L21.0999 22.9462C20.623 23.4147 19.9396 23.5246 19.3276 23.284C18.954 23.1374 18.5501 23.0545 18.1264 23.0545C16.8006 23.0545 15.6525 23.8306 15.0587 24.9716C14.7717 25.5246 14.2128 25.8608 13.6129 25.8608H5.20562C4.71814 25.8608 4.25191 25.6409 3.9421 25.2457C3.44246 24.6099 2.6315 24.2561 1.75068 24.4473C0.891117 24.6338 0.19709 25.3828 0.0391499 26.2879C-0.222059 27.7731 0.859225 29.0687 2.22754 29.0687C2.93827 29.0687 3.56699 28.7165 3.97247 28.1699C4.30506 27.7221 4.79103 27.4305 5.33167 27.4305L5.33015 27.4273Z" fill="white"/>
<path d="M19.2506 36.9218C18.3622 36.7402 17.5512 37.1131 17.0622 37.7664C16.7494 38.1855 16.2695 38.4278 15.7638 38.4278H11.548C11.0408 38.4278 10.5624 38.1855 10.2495 37.7664C9.76052 37.1131 8.94956 36.7402 8.06115 36.9202C7.18792 37.0987 6.4787 37.8541 6.31925 38.772C6.06259 40.2556 7.14084 41.548 8.50763 41.548C9.19862 41.548 9.81368 41.2149 10.2192 40.6954C10.5502 40.2699 11.0256 39.9974 11.5495 39.9974H15.7607C16.2847 39.9974 16.76 40.2715 17.0911 40.6954C17.4966 41.2165 18.1116 41.548 18.8026 41.548C20.1694 41.548 21.2477 40.2556 20.991 38.772C20.8315 37.8541 20.1223 37.0987 19.2506 36.9202V36.9218Z" fill="white"/>
<path d="M11.9428 16.382C12.8312 16.5637 13.6407 16.1908 14.1297 15.5358C14.4425 15.1167 14.9224 14.8745 15.4281 14.8745H29.0064C29.6352 14.8745 30.1925 15.2553 30.4917 15.837C31.1736 17.1629 32.6087 17.9995 34.1972 17.711C35.5746 17.4609 36.7106 16.3214 36.9976 14.8856C37.4715 12.508 35.7554 10.4141 33.5731 10.4141C32.2457 10.4141 31.0931 11.1885 30.4993 12.3311C30.1956 12.916 29.6397 13.308 29.0049 13.308H15.4327C14.9087 13.308 14.4334 13.0339 14.1023 12.61C13.6969 12.0889 13.0818 11.7574 12.3908 11.7574C11.024 11.7574 9.94426 13.0498 10.2024 14.5335C10.3619 15.4514 11.0711 16.2051 11.9443 16.3836L11.9428 16.382Z" fill="white"/>
<path d="M13.6482 42.25C12.4181 42.25 11.4219 43.297 11.4219 44.5862C11.4219 45.8754 12.4181 46.9224 13.6482 46.9224C14.8783 46.9224 15.8746 45.877 15.8746 44.5862C15.8746 43.2954 14.8768 42.25 13.6482 42.25Z" fill="white"/>
</svg>
